{"title":"One Hell of a Christmas 2002 DVDRip Xvid BigPerm LKRG","uid":6902723,"size":934438300,"categoryP":"video","categoryS":"movies","magnet":"?xt=urn:btih:823ad15c4dae16a5cbac6f0f62627f778d247c43&amp;dn=One+Hell+of+a+Christmas+2002+DVDRip+Xvid+BigPerm+LKRG&amp;tr=udp%3A%2F%2Ftracker.openbittorrent.com%3A80&amp;tr=udp%3A%2F%2Fopen.demonii.com%3A1337&amp;tr=udp%3A%2F%2Ftracker.coppersurfer.tk%3A6969&amp;tr=udp%3A%2F%2Fexodus.desync.com%3A6969","seeders":1,"leechers":0,"uploader":".BONE.","files":2,"time":1324463001,"description":"PLOT\n\nTolo Montana stars as Carlitos, a man looking to make a fresh start and life with\nhis young son. Unfortunately, when he's talked into &quot;one last job,&quot; Carlitos soon\nfinds himself embroiled in a situation far beyond anything he'd bargained for.\n\nEncoded By .......: BigPerm\nRuntime ..........: 1h 34mn\nFile Size ........: 891 MB\nResolution .......: 640 x 352 &lt;a href=&quot;\nhttp://www.imdb.com/title/tt0316352/&quot; rel=&quot;nofollow&quot; target=&quot;_NEW&quot;&gt;\nhttp://www.imdb.com/title/tt0316352/&lt;/a&gt;\nGenre ............: Action,Comedy,Crime,Horror\nLanguage .........: English\nSubtitles ........: English when needed\nVideo\nID : 0\nFormat : MPEG-4 Visual\nFormat profile : Advanced Simple@L5\nFormat settings, BVOP : Yes\nFormat settings, QPel : No\nFormat settings, GMC : No warppoints\nFormat settings, Matrix : Default (H.263)\nMuxing mode : Packed bitstream\nCodec ID : XVID\nCodec ID/Hint : XviD\nDuration : 1h 34mn\nBit rate : 856 Kbps\nWidth : 640 pixels\nHeight : 352 pixels\nDisplay aspect ratio : 16:9\nFrame rate : 29.970 fps\nColor space : YUV\nChroma subsampling : 4:2:0\nBit depth : 8 bits\nScan type : Progressive\nCompression mode : Lossy\nBits/(Pixel*Frame) : 0.127\nStream size : 580 MiB (65%)\nWriting library : XviD 64\nAudio\nID : 1\nFormat : AC-3\nFormat/Info : Audio Coding 3\nMode extension : CM (complete main)\nCodec ID : 2000\nDuration : 1h 34mn\nBit rate mode : Constant\nBit rate : 448 Kbps\nChannel(s) : 2 channels\nChannel positions : Front: L R\nSampling rate : 48.0 KHz\nBit depth : 16 bits\nCompression mode : Lossy\nStream size : 303 MiB (34%)\nAlignment : Split accross interleaves\nInterleave, duration : 33 ms (1.00 video frame)\nInterleave, preload duration : 500 ms\n\n","torrent":{"xt":"urn:btih:823ad15c4dae16a5cbac6f0f62627f778d247c43","amp;dn":"One+Hell+of+a+Christmas+2002+DVDRip+Xvid+BigPerm+LKRG","amp;tr":["udp%3A%2F%2Ftracker.openbittorrent.com%3A80","udp%3A%2F%2Fopen.demonii.com%3A1337","udp%3A%2F%2Ftracker.coppersurfer.tk%3A6969","udp%3A%2F%2Fexodus.desync.com%3A6969"],"infoHash":"823ad15c4dae16a5cbac6f0f62627f778d247c43","infoHashBuffer":{"type":"Buffer","data":[130,58,209,92,77,174,22,165,203,172,111,15,98,98,127,119,141,36,124,67]},"announce":[],"urlList":[]}}